<?xml version="1.0" encoding="UTF-8"?>
<svg xmlns="http://www.w3.org/2000/svg" width="1440" height="1200" viewBox="0 0 1440 1200">
<rect x="0" y="0" width="1440" height="1200" fill="#f7f4ea"/>
<rect x="40" y="40" width="1360" height="1120" rx="30" fill="#fffdf8" stroke="#e7e5e4" stroke-width="2"/>
<text x="70" y="86" font-size="34" font-family="Segoe UI" font-weight="700" fill="#111827">一致性哈希环（虚拟节点版，扩容前）</text>
<text x="70" y="122" font-size="19" font-family="Segoe UI" fill="#475569">每个真实节点拆成多个虚拟节点并均匀散列到环上，玩家顺时针找到第一个虚拟节点。</text>
<text x="70" y="152" font-size="19" font-family="Segoe UI" fill="#475569">真实节点数=3，replicas=50，环上虚拟节点总数=150</text>
<circle cx="560.0" cy="650.0" r="330.0" fill="none" stroke="#334155" stroke-width="4"/>
<circle cx="560.7" cy="320.0" r="5.8" fill="#8a6f3d" stroke="#0f172a" stroke-width="1.2"/>
<circle cx="566.1" cy="320.1" r="5.8" fill="#6d597a" stroke="#0f172a" stroke-width="1.2"/>
<circle cx="569.9" cy="320.1" r="5.8" fill="#8a6f3d" stroke="#0f172a" stroke-width="1.2"/>
<circle cx="577.0" cy="320.4" r="5.8" fill="#7c6f64" stroke="#0f172a" stroke-width="1.2"/>
<circle cx="579.0" cy="320.5" r="5.8" fill="#7c6f64" stroke="#0f172a" stroke-width="1.2"/>
<circle cx="582.4" cy="320.8" r="5.8" fill="#7c6f64" stroke="#0f172a" stroke-width="1.2"/>
<circle cx="588.0" cy="321.2" r="5.8" fill="#8a6f3d" stroke="#0f172a" stroke-width="1.2"/>
<circle cx="591.3" cy="321.5" r="5.8" fill="#6d597a" stroke="#0f172a" stroke-width="1.2"/>
<circle cx="591.4" cy="321.5" r="5.8" fill="#8a6f3d" stroke="#0f172a" stroke-width="1.2"/>
<circle cx="598.3" cy="322.2" r="5.8" fill="#7c6f64" stroke="#0f172a" stroke-width="1.2"/>
<circle cx="609.9" cy="323.8" r="5.8" fill="#7c6f64" stroke="#0f172a" stroke-width="1.2"/>
<circle cx="614.5" cy="324.5" r="5.8" fill="#8a6f3d" stroke="#0f172a" stroke-width="1.2"/>
<circle cx="642.2" cy="330.4" r="5.8" fill="#7c6f64" stroke="#0f172a" stroke-width="1.2"/>
<circle cx="657.2" cy="334.6" r="5.8" fill="#6d597a" stroke="#0f172a" stroke-width="1.2"/>
<circle cx="679.2" cy="342.3" r="5.8" fill="#6d597a" stroke="#0f172a" stroke-width="1.2"/>
<circle cx="679.6" cy="342.5" r="5.8" fill="#6d597a" stroke="#0f172a" stroke-width="1.2"/>
<circle cx="686.6" cy="345.2" r="5.8" fill="#8a6f3d" stroke="#0f172a" stroke-width="1.2"/>
<circle cx="691.3" cy="347.3" r="5.8" fill="#8a6f3d" stroke="#0f172a" stroke-width="1.2"/>
<circle cx="712.6" cy="357.4" r="5.8" fill="#6d597a" stroke="#0f172a" stroke-width="1.2"/>
<circle cx="713.3" cy="357.8" r="5.8" fill="#8a6f3d" stroke="#0f172a" stroke-width="1.2"/>
<circle cx="737.8" cy="372.0" r="5.8" fill="#6d597a" stroke="#0f172a" stroke-width="1.2"/>
<circle cx="750.9" cy="380.9" r="5.8" fill="#6d597a" stroke="#0f172a" stroke-width="1.2"/>
<circle cx="752.5" cy="381.9" r="5.8" fill="#7c6f64" stroke="#0f172a" stroke-width="1.2"/>
<circle cx="764.1" cy="390.7" r="5.8" fill="#8a6f3d" stroke="#0f172a" stroke-width="1.2"/>
<circle cx="772.9" cy="397.8" r="5.8" fill="#6d597a" stroke="#0f172a" stroke-width="1.2"/>
<circle cx="795.6" cy="418.9" r="5.8" fill="#7c6f64" stroke="#0f172a" stroke-width="1.2"/>
<circle cx="819.5" cy="446.1" r="5.8" fill="#7c6f64" stroke="#0f172a" stroke-width="1.2"/>
<circle cx="830.6" cy="461.2" r="5.8" fill="#7c6f64" stroke="#0f172a" stroke-width="1.2"/>
<circle cx="837.9" cy="472.0" r="5.8" fill="#8a6f3d" stroke="#0f172a" stroke-width="1.2"/>
<circle cx="849.6" cy="491.9" r="5.8" fill="#7c6f64" stroke="#0f172a" stroke-width="1.2"/>
<circle cx="861.6" cy="516.0" r="5.8" fill="#7c6f64" stroke="#0f172a" stroke-width="1.2"/>
<circle cx="871.8" cy="541.9" r="5.8" fill="#6d597a" stroke="#0f172a" stroke-width="1.2"/>
<circle cx="877.5" cy="560.2" r="5.8" fill="#8a6f3d" stroke="#0f172a" stroke-width="1.2"/>
<circle cx="884.6" cy="590.4" r="5.8" fill="#8a6f3d" stroke="#0f172a" stroke-width="1.2"/>
<circle cx="889.0" cy="624.1" r="5.8" fill="#8a6f3d" stroke="#0f172a" stroke-width="1.2"/>
<circle cx="889.4" cy="630.4" r="5.8" fill="#7c6f64" stroke="#0f172a" stroke-width="1.2"/>
<circle cx="890.0" cy="647.6" r="5.8" fill="#8a6f3d" stroke="#0f172a" stroke-width="1.2"/>
<circle cx="890.0" cy="649.9" r="5.8" fill="#6d597a" stroke="#0f172a" stroke-width="1.2"/>
<circle cx="889.8" cy="660.1" r="5.8" fill="#7c6f64" stroke="#0f172a" stroke-width="1.2"/>
<circle cx="889.1" cy="673.9" r="5.8" fill="#7c6f64" stroke="#0f172a" stroke-width="1.2"/>
<circle cx="889.0" cy="675.6" r="5.8" fill="#6d597a" stroke="#0f172a" stroke-width="1.2"/>
<circle cx="888.0" cy="686.2" r="5.8" fill="#8a6f3d" stroke="#0f172a" stroke-width="1.2"/>
<circle cx="887.7" cy="688.7" r="5.8" fill="#8a6f3d" stroke="#0f172a" stroke-width="1.2"/>
<circle cx="880.0" cy="730.4" r="5.8" fill="#6d597a" stroke="#0f172a" stroke-width="1.2"/>
<circle cx="878.9" cy="734.8" r="5.8" fill="#8a6f3d" stroke="#0f172a" stroke-width="1.2"/>
<circle cx="877.6" cy="739.5" r="5.8" fill="#8a6f3d" stroke="#0f172a" stroke-width="1.2"/>
<circle cx="869.1" cy="765.5" r="5.8" fill="#8a6f3d" stroke="#0f172a" stroke-width="1.2"/>
<circle cx="852.9" cy="801.9" r="5.8" fill="#6d597a" stroke="#0f172a" stroke-width="1.2"/>
<circle cx="849.5" cy="808.5" r="5.8" fill="#6d597a" stroke="#0f172a" stroke-width="1.2"/>
<circle cx="849.4" cy="808.5" r="5.8" fill="#8a6f3d" stroke="#0f172a" stroke-width="1.2"/>
<circle cx="831.6" cy="837.5" r="5.8" fill="#7c6f64" stroke="#0f172a" stroke-width="1.2"/>
<circle cx="827.9" cy="842.7" r="5.8" fill="#7c6f64" stroke="#0f172a" stroke-width="1.2"/>
<circle cx="818.6" cy="855.0" r="5.8" fill="#8a6f3d" stroke="#0f172a" stroke-width="1.2"/>
<circle cx="817.0" cy="857.0" r="5.8" fill="#8a6f3d" stroke="#0f172a" stroke-width="1.2"/>
<circle cx="811.9" cy="863.2" r="5.8" fill="#6d597a" stroke="#0f172a" stroke-width="1.2"/>
<circle cx="811.3" cy="863.9" r="5.8" fill="#6d597a" stroke="#0f172a" stroke-width="1.2"/>
<circle cx="794.9" cy="881.8" r="5.8" fill="#7c6f64" stroke="#0f172a" stroke-width="1.2"/>
<circle cx="783.6" cy="892.7" r="5.8" fill="#8a6f3d" stroke="#0f172a" stroke-width="1.2"/>
<circle cx="781.4" cy="894.7" r="5.8" fill="#8a6f3d" stroke="#0f172a" stroke-width="1.2"/>
<circle cx="770.2" cy="904.4" r="5.8" fill="#8a6f3d" stroke="#0f172a" stroke-width="1.2"/>
<circle cx="762.9" cy="910.3" r="5.8" fill="#8a6f3d" stroke="#0f172a" stroke-width="1.2"/>
<circle cx="735.0" cy="929.8" r="5.8" fill="#8a6f3d" stroke="#0f172a" stroke-width="1.2"/>
<circle cx="709.6" cy="944.1" r="5.8" fill="#8a6f3d" stroke="#0f172a" stroke-width="1.2"/>
<circle cx="701.6" cy="948.1" r="5.8" fill="#6d597a" stroke="#0f172a" stroke-width="1.2"/>
<circle cx="698.9" cy="949.3" r="5.8" fill="#6d597a" stroke="#0f172a" stroke-width="1.2"/>
<circle cx="691.4" cy="952.7" r="5.8" fill="#8a6f3d" stroke="#0f172a" stroke-width="1.2"/>
<circle cx="689.0" cy="953.7" r="5.8" fill="#8a6f3d" stroke="#0f172a" stroke-width="1.2"/>
<circle cx="670.3" cy="961.0" r="5.8" fill="#7c6f64" stroke="#0f172a" stroke-width="1.2"/>
<circle cx="659.1" cy="964.8" r="5.8" fill="#6d597a" stroke="#0f172a" stroke-width="1.2"/>
<circle cx="656.0" cy="965.7" r="5.8" fill="#6d597a" stroke="#0f172a" stroke-width="1.2"/>
<circle cx="635.6" cy="971.2" r="5.8" fill="#7c6f64" stroke="#0f172a" stroke-width="1.2"/>
<circle cx="598.0" cy="977.8" r="5.8" fill="#8a6f3d" stroke="#0f172a" stroke-width="1.2"/>
<circle cx="578.3" cy="979.5" r="5.8" fill="#6d597a" stroke="#0f172a" stroke-width="1.2"/>
<circle cx="574.1" cy="979.7" r="5.8" fill="#6d597a" stroke="#0f172a" stroke-width="1.2"/>
<circle cx="570.2" cy="979.8" r="5.8" fill="#7c6f64" stroke="#0f172a" stroke-width="1.2"/>
<circle cx="551.7" cy="979.9" r="5.8" fill="#8a6f3d" stroke="#0f172a" stroke-width="1.2"/>
<circle cx="541.8" cy="979.5" r="5.8" fill="#7c6f64" stroke="#0f172a" stroke-width="1.2"/>
<circle cx="540.6" cy="979.4" r="5.8" fill="#8a6f3d" stroke="#0f172a" stroke-width="1.2"/>
<circle cx="524.8" cy="978.1" r="5.8" fill="#8a6f3d" stroke="#0f172a" stroke-width="1.2"/>
<circle cx="504.5" cy="975.3" r="5.8" fill="#7c6f64" stroke="#0f172a" stroke-width="1.2"/>
<circle cx="503.8" cy="975.2" r="5.8" fill="#6d597a" stroke="#0f172a" stroke-width="1.2"/>
<circle cx="503.7" cy="975.2" r="5.8" fill="#8a6f3d" stroke="#0f172a" stroke-width="1.2"/>
<circle cx="501.7" cy="974.8" r="5.8" fill="#7c6f64" stroke="#0f172a" stroke-width="1.2"/>
<circle cx="485.5" cy="971.5" r="5.8" fill="#7c6f64" stroke="#0f172a" stroke-width="1.2"/>
<circle cx="460.3" cy="964.6" r="5.8" fill="#6d597a" stroke="#0f172a" stroke-width="1.2"/>
<circle cx="453.5" cy="962.3" r="5.8" fill="#6d597a" stroke="#0f172a" stroke-width="1.2"/>
<circle cx="441.5" cy="958.0" r="5.8" fill="#7c6f64" stroke="#0f172a" stroke-width="1.2"/>
<circle cx="434.3" cy="955.1" r="5.8" fill="#8a6f3d" stroke="#0f172a" stroke-width="1.2"/>
<circle cx="429.3" cy="953.0" r="5.8" fill="#8a6f3d" stroke="#0f172a" stroke-width="1.2"/>
<circle cx="425.7" cy="951.5" r="5.8" fill="#7c6f64" stroke="#0f172a" stroke-width="1.2"/>
<circle cx="421.9" cy="949.7" r="5.8" fill="#6d597a" stroke="#0f172a" stroke-width="1.2"/>
<circle cx="410.5" cy="944.2" r="5.8" fill="#6d597a" stroke="#0f172a" stroke-width="1.2"/>
<circle cx="403.3" cy="940.4" r="5.8" fill="#7c6f64" stroke="#0f172a" stroke-width="1.2"/>
<circle cx="385.3" cy="930.0" r="5.8" fill="#6d597a" stroke="#0f172a" stroke-width="1.2"/>
<circle cx="359.6" cy="912.2" r="5.8" fill="#8a6f3d" stroke="#0f172a" stroke-width="1.2"/>
<circle cx="351.2" cy="905.5" r="5.8" fill="#6d597a" stroke="#0f172a" stroke-width="1.2"/>
<circle cx="348.2" cy="903.0" r="5.8" fill="#6d597a" stroke="#0f172a" stroke-width="1.2"/>
<circle cx="312.6" cy="868.4" r="5.8" fill="#6d597a" stroke="#0f172a" stroke-width="1.2"/>
<circle cx="307.2" cy="862.1" r="5.8" fill="#7c6f64" stroke="#0f172a" stroke-width="1.2"/>
<circle cx="287.2" cy="835.7" r="5.8" fill="#7c6f64" stroke="#0f172a" stroke-width="1.2"/>
<circle cx="286.9" cy="835.2" r="5.8" fill="#8a6f3d" stroke="#0f172a" stroke-width="1.2"/>
<circle cx="273.4" cy="813.6" r="5.8" fill="#6d597a" stroke="#0f172a" stroke-width="1.2"/>
<circle cx="268.8" cy="805.3" r="5.8" fill="#7c6f64" stroke="#0f172a" stroke-width="1.2"/>
<circle cx="260.8" cy="789.1" r="5.8" fill="#6d597a" stroke="#0f172a" stroke-width="1.2"/>
<circle cx="259.0" cy="785.3" r="5.8" fill="#7c6f64" stroke="#0f172a" stroke-width="1.2"/>
<circle cx="255.3" cy="776.7" r="5.8" fill="#7c6f64" stroke="#0f172a" stroke-width="1.2"/>
<circle cx="247.4" cy="755.8" r="5.8" fill="#7c6f64" stroke="#0f172a" stroke-width="1.2"/>
<circle cx="240.7" cy="733.3" r="5.8" fill="#8a6f3d" stroke="#0f172a" stroke-width="1.2"/>
<circle cx="232.1" cy="687.1" r="5.8" fill="#8a6f3d" stroke="#0f172a" stroke-width="1.2"/>
<circle cx="231.6" cy="682.0" r="5.8" fill="#6d597a" stroke="#0f172a" stroke-width="1.2"/>
<circle cx="230.9" cy="674.9" r="5.8" fill="#7c6f64" stroke="#0f172a" stroke-width="1.2"/>
<circle cx="230.6" cy="670.2" r="5.8" fill="#7c6f64" stroke="#0f172a" stroke-width="1.2"/>
<circle cx="230.0" cy="647.4" r="5.8" fill="#6d597a" stroke="#0f172a" stroke-width="1.2"/>
<circle cx="230.0" cy="644.7" r="5.8" fill="#7c6f64" stroke="#0f172a" stroke-width="1.2"/>
<circle cx="230.5" cy="631.4" r="5.8" fill="#8a6f3d" stroke="#0f172a" stroke-width="1.2"/>
<circle cx="231.6" cy="617.2" r="5.8" fill="#8a6f3d" stroke="#0f172a" stroke-width="1.2"/>
<circle cx="245.0" cy="551.7" r="5.8" fill="#6d597a" stroke="#0f172a" stroke-width="1.2"/>
<circle cx="246.1" cy="548.1" r="5.8" fill="#7c6f64" stroke="#0f172a" stroke-width="1.2"/>
<circle cx="249.8" cy="537.4" r="5.8" fill="#7c6f64" stroke="#0f172a" stroke-width="1.2"/>
<circle cx="256.0" cy="521.6" r="5.8" fill="#6d597a" stroke="#0f172a" stroke-width="1.2"/>
<circle cx="262.5" cy="507.3" r="5.8" fill="#7c6f64" stroke="#0f172a" stroke-width="1.2"/>
<circle cx="266.7" cy="498.7" r="5.8" fill="#7c6f64" stroke="#0f172a" stroke-width="1.2"/>
<circle cx="268.8" cy="494.7" r="5.8" fill="#7c6f64" stroke="#0f172a" stroke-width="1.2"/>
<circle cx="269.0" cy="494.4" r="5.8" fill="#6d597a" stroke="#0f172a" stroke-width="1.2"/>
<circle cx="269.6" cy="493.2" r="5.8" fill="#7c6f64" stroke="#0f172a" stroke-width="1.2"/>
<circle cx="273.9" cy="485.6" r="5.8" fill="#7c6f64" stroke="#0f172a" stroke-width="1.2"/>
<circle cx="274.0" cy="485.4" r="5.8" fill="#6d597a" stroke="#0f172a" stroke-width="1.2"/>
<circle cx="277.9" cy="478.8" r="5.8" fill="#6d597a" stroke="#0f172a" stroke-width="1.2"/>
<circle cx="278.5" cy="477.7" r="5.8" fill="#8a6f3d" stroke="#0f172a" stroke-width="1.2"/>
<circle cx="286.6" cy="465.2" r="5.8" fill="#6d597a" stroke="#0f172a" stroke-width="1.2"/>
<circle cx="306.7" cy="438.5" r="5.8" fill="#8a6f3d" stroke="#0f172a" stroke-width="1.2"/>
<circle cx="308.0" cy="436.9" r="5.8" fill="#7c6f64" stroke="#0f172a" stroke-width="1.2"/>
<circle cx="314.1" cy="430.0" r="5.8" fill="#6d597a" stroke="#0f172a" stroke-width="1.2"/>
<circle cx="322.4" cy="421.0" r="5.8" fill="#6d597a" stroke="#0f172a" stroke-width="1.2"/>
<circle cx="334.8" cy="408.8" r="5.8" fill="#8a6f3d" stroke="#0f172a" stroke-width="1.2"/>
<circle cx="341.9" cy="402.3" r="5.8" fill="#7c6f64" stroke="#0f172a" stroke-width="1.2"/>
<circle cx="349.6" cy="395.8" r="5.8" fill="#8a6f3d" stroke="#0f172a" stroke-width="1.2"/>
<circle cx="372.6" cy="378.4" r="5.8" fill="#6d597a" stroke="#0f172a" stroke-width="1.2"/>
<circle cx="373.6" cy="377.7" r="5.8" fill="#6d597a" stroke="#0f172a" stroke-width="1.2"/>
<circle cx="428.2" cy="347.5" r="5.8" fill="#8a6f3d" stroke="#0f172a" stroke-width="1.2"/>
<circle cx="438.2" cy="343.3" r="5.8" fill="#8a6f3d" stroke="#0f172a" stroke-width="1.2"/>
<circle cx="439.1" cy="342.9" r="5.8" fill="#6d597a" stroke="#0f172a" stroke-width="1.2"/>
<circle cx="449.5" cy="339.1" r="5.8" fill="#7c6f64" stroke="#0f172a" stroke-width="1.2"/>
<circle cx="456.4" cy="336.7" r="5.8" fill="#8a6f3d" stroke="#0f172a" stroke-width="1.2"/>
<circle cx="456.7" cy="336.6" r="5.8" fill="#7c6f64" stroke="#0f172a" stroke-width="1.2"/>
<circle cx="468.9" cy="332.8" r="5.8" fill="#7c6f64" stroke="#0f172a" stroke-width="1.2"/>
<circle cx="470.3" cy="332.4" r="5.8" fill="#6d597a" stroke="#0f172a" stroke-width="1.2"/>
<circle cx="480.1" cy="329.8" r="5.8" fill="#7c6f64" stroke="#0f172a" stroke-width="1.2"/>
<circle cx="494.8" cy="326.5" r="5.8" fill="#6d597a" stroke="#0f172a" stroke-width="1.2"/>
<circle cx="551.3" cy="320.1" r="5.8" fill="#6d597a" stroke="#0f172a" stroke-width="1.2"/>
<rect x="1040.0" y="96.0" width="300" height="168" rx="18" fill="#fffdf7" stroke="#d6d3d1" stroke-width="1.5"/>
<text x="1060.0" y="130.0" font-size="22" font-family="Segoe UI" font-weight="700" fill="#1f2937">图例</text>
<circle cx="1066.0" cy="162.0" r="6" fill="#64748b" stroke="#0f172a" stroke-width="1.3"/>
<text x="1088.0" y="168.0" font-size="17" font-family="Segoe UI" fill="#334155">原有节点的虚拟节点</text>
<circle cx="1066.0" cy="198.0" r="6" fill="#e76f51" stroke="#0f172a" stroke-width="1.3"/>
<text x="1088.0" y="204.0" font-size="17" font-family="Segoe UI" fill="#334155">新增节点的虚拟节点</text>
<line x1="1056.0" y1="234.0" x2="1078.0" y2="234.0" stroke="#dc2626" stroke-width="8" stroke-linecap="round"/>
<text x="1088.0" y="240.0" font-size="17" font-family="Segoe UI" fill="#334155">迁移区间</text>
<rect x="1040.0" y="360.0" width="300" height="160" rx="18" fill="#f8fafc" stroke="#d6d3d1" stroke-width="1.5"/>
<text x="1060.0" y="394.0" font-size="22" font-family="Segoe UI" font-weight="700" fill="#1f2937">环信息</text>
<text x="1060.0" y="430.0" font-size="18" font-family="Segoe UI" fill="#334155">真实节点数：3</text>
<text x="1060.0" y="462.0" font-size="18" font-family="Segoe UI" fill="#334155">每节点虚拟节点：50</text>
<text x="1060.0" y="494.0" font-size="18" font-family="Segoe UI" fill="#334155">环上虚拟节点总数：150</text>
</svg>
