<?xml version="1.0" encoding="UTF-8"?>
<svg xmlns="http://www.w3.org/2000/svg" width="1440" height="1200" viewBox="0 0 1440 1200">
<rect x="0" y="0" width="1440" height="1200" fill="#f7f4ea"/>
<rect x="40" y="40" width="1360" height="1120" rx="30" fill="#fffdf8" stroke="#e7e5e4" stroke-width="2"/>
<text x="70" y="86" font-size="34" font-family="Segoe UI" font-weight="700" fill="#111827">一致性哈希环（虚拟节点版，扩容后）</text>
<text x="70" y="122" font-size="19" font-family="Segoe UI" fill="#475569">每个真实节点拆成多个虚拟节点并均匀散列到环上，玩家顺时针找到第一个虚拟节点。</text>
<text x="70" y="152" font-size="19" font-family="Segoe UI" fill="#475569">真实节点数=4，replicas=50，环上虚拟节点总数=200</text>
<circle cx="560.0" cy="650.0" r="330.0" fill="none" stroke="#334155" stroke-width="4"/>
<polyline points="849.4,808.5 846.3,814.1 843.0,819.7 839.7,825.2 836.2,830.6" fill="none" stroke="#dc2626" stroke-width="8" stroke-linecap="round" stroke-linejoin="round" opacity="0.9"/>
<polyline points="494.8,326.5 495.9,326.3 496.9,326.1 498.0,325.9 499.0,325.7" fill="none" stroke="#dc2626" stroke-width="8" stroke-linecap="round" stroke-linejoin="round" opacity="0.9"/>
<polyline points="889.8,660.1 889.8,662.6 889.7,665.1 889.5,667.6 889.4,670.1" fill="none" stroke="#dc2626" stroke-width="8" stroke-linecap="round" stroke-linejoin="round" opacity="0.9"/>
<polyline points="428.2,347.5 429.1,347.1 430.0,346.7 430.9,346.3 431.8,345.9" fill="none" stroke="#dc2626" stroke-width="8" stroke-linecap="round" stroke-linejoin="round" opacity="0.9"/>
<polyline points="709.6,944.1 709.5,944.2 709.5,944.2 709.4,944.3 709.3,944.3" fill="none" stroke="#dc2626" stroke-width="8" stroke-linecap="round" stroke-linejoin="round" opacity="0.9"/>
<polyline points="598.0,977.8 596.6,978.0 595.2,978.1 593.8,978.3 592.5,978.4" fill="none" stroke="#dc2626" stroke-width="8" stroke-linecap="round" stroke-linejoin="round" opacity="0.9"/>
<polyline points="598.0,977.8 594.8,978.2 591.6,978.5 588.5,978.8 585.3,979.0" fill="none" stroke="#dc2626" stroke-width="8" stroke-linecap="round" stroke-linejoin="round" opacity="0.9"/>
<polyline points="735.0,929.8 731.2,932.1 727.4,934.4 723.5,936.7 719.6,938.8" fill="none" stroke="#dc2626" stroke-width="8" stroke-linecap="round" stroke-linejoin="round" opacity="0.9"/>
<polyline points="260.8,789.1 260.6,788.8 260.5,788.5 260.3,788.1 260.2,787.8" fill="none" stroke="#dc2626" stroke-width="8" stroke-linecap="round" stroke-linejoin="round" opacity="0.9"/>
<polyline points="501.7,974.8 498.4,974.2 495.1,973.6 491.9,972.9 488.6,972.2" fill="none" stroke="#dc2626" stroke-width="8" stroke-linecap="round" stroke-linejoin="round" opacity="0.9"/>
<polyline points="770.2,904.4 768.5,905.8 766.8,907.2 765.1,908.5 763.4,909.9" fill="none" stroke="#dc2626" stroke-width="8" stroke-linecap="round" stroke-linejoin="round" opacity="0.9"/>
<polyline points="480.1,329.8 482.3,329.3 484.5,328.8 486.7,328.2 488.9,327.8" fill="none" stroke="#dc2626" stroke-width="8" stroke-linecap="round" stroke-linejoin="round" opacity="0.9"/>
<polyline points="551.3,320.1 552.9,320.1 554.6,320.0 556.3,320.0 557.9,320.0" fill="none" stroke="#dc2626" stroke-width="8" stroke-linecap="round" stroke-linejoin="round" opacity="0.9"/>
<polyline points="869.1,765.5 867.2,770.5 865.2,775.5 863.1,780.4 861.0,785.4" fill="none" stroke="#dc2626" stroke-width="8" stroke-linecap="round" stroke-linejoin="round" opacity="0.9"/>
<polyline points="869.1,765.5 868.4,767.5 867.6,769.5 866.8,771.4 866.1,773.4" fill="none" stroke="#dc2626" stroke-width="8" stroke-linecap="round" stroke-linejoin="round" opacity="0.9"/>
<polyline points="811.3,863.9 808.7,866.9 806.1,869.8 803.5,872.7 800.9,875.6" fill="none" stroke="#dc2626" stroke-width="8" stroke-linecap="round" stroke-linejoin="round" opacity="0.9"/>
<polyline points="460.3,964.6 458.7,964.1 457.1,963.5 455.5,963.0 453.9,962.5" fill="none" stroke="#dc2626" stroke-width="8" stroke-linecap="round" stroke-linejoin="round" opacity="0.9"/>
<polyline points="231.6,617.2 232.7,607.9 234.0,598.7 235.6,589.5 237.4,580.3 239.5,571.3 241.9,562.2 244.5,553.3" fill="none" stroke="#dc2626" stroke-width="8" stroke-linecap="round" stroke-linejoin="round" opacity="0.9"/>
<polyline points="231.6,617.2 232.3,610.8 233.2,604.4 234.1,598.0 235.2,591.6" fill="none" stroke="#dc2626" stroke-width="8" stroke-linecap="round" stroke-linejoin="round" opacity="0.9"/>
<polyline points="762.9,910.3 762.0,911.0 761.1,911.7 760.2,912.4 759.3,913.0" fill="none" stroke="#dc2626" stroke-width="8" stroke-linecap="round" stroke-linejoin="round" opacity="0.9"/>
<polyline points="642.2,330.4 644.4,331.0 646.6,331.6 648.7,332.1 650.9,332.8" fill="none" stroke="#dc2626" stroke-width="8" stroke-linecap="round" stroke-linejoin="round" opacity="0.9"/>
<polyline points="794.9,881.8 792.6,884.1 790.2,886.4 787.9,888.7 785.5,890.9" fill="none" stroke="#dc2626" stroke-width="8" stroke-linecap="round" stroke-linejoin="round" opacity="0.9"/>
<polyline points="503.7,975.2 503.4,975.1 503.1,975.1 502.8,975.0 502.5,974.9" fill="none" stroke="#dc2626" stroke-width="8" stroke-linecap="round" stroke-linejoin="round" opacity="0.9"/>
<polyline points="849.6,491.9 850.8,494.1 852.0,496.3 853.2,498.6 854.4,500.8" fill="none" stroke="#dc2626" stroke-width="8" stroke-linecap="round" stroke-linejoin="round" opacity="0.9"/>
<polyline points="373.6,377.7 380.3,373.2 387.1,368.9 394.0,364.8 400.9,360.9 408.0,357.1" fill="none" stroke="#dc2626" stroke-width="8" stroke-linecap="round" stroke-linejoin="round" opacity="0.9"/>
<polyline points="485.5,971.5 484.5,971.3 483.6,971.0 482.6,970.8 481.6,970.6" fill="none" stroke="#dc2626" stroke-width="8" stroke-linecap="round" stroke-linejoin="round" opacity="0.9"/>
<polyline points="642.2,330.4 644.6,331.0 646.9,331.7 649.3,332.3 651.6,333.0" fill="none" stroke="#dc2626" stroke-width="8" stroke-linecap="round" stroke-linejoin="round" opacity="0.9"/>
<polyline points="231.6,617.2 232.6,609.0 233.7,600.8 235.0,592.6 236.6,584.5 238.3,576.4 240.2,568.4 242.4,560.4" fill="none" stroke="#dc2626" stroke-width="8" stroke-linecap="round" stroke-linejoin="round" opacity="0.9"/>
<polyline points="887.7,688.7 887.1,693.6 886.4,698.5 885.7,703.4 884.8,708.3" fill="none" stroke="#dc2626" stroke-width="8" stroke-linecap="round" stroke-linejoin="round" opacity="0.9"/>
<polyline points="348.2,903.0 347.2,902.3 346.3,901.5 345.4,900.7 344.4,899.9" fill="none" stroke="#dc2626" stroke-width="8" stroke-linecap="round" stroke-linejoin="round" opacity="0.9"/>
<polyline points="566.1,320.1 566.7,320.1 567.3,320.1 567.9,320.1 568.5,320.1" fill="none" stroke="#dc2626" stroke-width="8" stroke-linecap="round" stroke-linejoin="round" opacity="0.9"/>
<polyline points="794.9,881.8 794.1,882.6 793.2,883.5 792.4,884.3 791.5,885.2" fill="none" stroke="#dc2626" stroke-width="8" stroke-linecap="round" stroke-linejoin="round" opacity="0.9"/>
<polyline points="349.6,395.8 350.1,395.4 350.5,395.0 351.0,394.6 351.4,394.3" fill="none" stroke="#dc2626" stroke-width="8" stroke-linecap="round" stroke-linejoin="round" opacity="0.9"/>
<polyline points="642.2,330.4 642.3,330.4 642.4,330.5 642.5,330.5 642.6,330.5" fill="none" stroke="#dc2626" stroke-width="8" stroke-linecap="round" stroke-linejoin="round" opacity="0.9"/>
<polyline points="453.5,962.3 451.0,961.5 448.5,960.6 446.0,959.7 443.5,958.7" fill="none" stroke="#dc2626" stroke-width="8" stroke-linecap="round" stroke-linejoin="round" opacity="0.9"/>
<polyline points="260.8,789.1 260.4,788.4 260.1,787.6 259.7,786.8 259.3,786.0" fill="none" stroke="#dc2626" stroke-width="8" stroke-linecap="round" stroke-linejoin="round" opacity="0.9"/>
<polyline points="278.5,477.7 280.1,475.1 281.7,472.6 283.4,470.0 285.0,467.5" fill="none" stroke="#dc2626" stroke-width="8" stroke-linecap="round" stroke-linejoin="round" opacity="0.9"/>
<polyline points="887.7,688.7 887.7,689.0 887.6,689.4 887.6,689.8 887.5,690.2" fill="none" stroke="#dc2626" stroke-width="8" stroke-linecap="round" stroke-linejoin="round" opacity="0.9"/>
<polyline points="341.9,402.3 343.3,401.1 344.7,399.9 346.1,398.7 347.5,397.5" fill="none" stroke="#dc2626" stroke-width="8" stroke-linecap="round" stroke-linejoin="round" opacity="0.9"/>
<polyline points="887.7,688.7 887.2,693.0 886.6,697.4 885.9,701.7 885.2,706.1" fill="none" stroke="#dc2626" stroke-width="8" stroke-linecap="round" stroke-linejoin="round" opacity="0.9"/>
<polyline points="494.8,326.5 498.8,325.7 502.8,325.0 506.7,324.3 510.7,323.7" fill="none" stroke="#dc2626" stroke-width="8" stroke-linecap="round" stroke-linejoin="round" opacity="0.9"/>
<polyline points="827.9,842.7 826.9,844.1 825.8,845.6 824.7,847.0 823.7,848.4" fill="none" stroke="#dc2626" stroke-width="8" stroke-linecap="round" stroke-linejoin="round" opacity="0.9"/>
<polyline points="247.4,755.8 247.3,755.5 247.2,755.1 247.0,754.7 246.9,754.3" fill="none" stroke="#dc2626" stroke-width="8" stroke-linecap="round" stroke-linejoin="round" opacity="0.9"/>
<polyline points="231.6,617.2 232.7,608.0 234.0,598.9 235.5,589.8 237.3,580.8 239.4,571.8 241.7,562.8" fill="none" stroke="#dc2626" stroke-width="8" stroke-linecap="round" stroke-linejoin="round" opacity="0.9"/>
<polyline points="551.7,979.9 550.4,979.9 549.1,979.8 547.7,979.8 546.4,979.7" fill="none" stroke="#dc2626" stroke-width="8" stroke-linecap="round" stroke-linejoin="round" opacity="0.9"/>
<polyline points="827.9,842.7 826.5,844.6 825.1,846.5 823.7,848.4 822.3,850.3" fill="none" stroke="#dc2626" stroke-width="8" stroke-linecap="round" stroke-linejoin="round" opacity="0.9"/>
<polyline points="752.5,381.9 752.5,382.0 752.5,382.0 752.5,382.0 752.5,382.0" fill="none" stroke="#dc2626" stroke-width="8" stroke-linecap="round" stroke-linejoin="round" opacity="0.9"/>
<polyline points="231.6,617.2 231.9,614.3 232.3,611.4 232.6,608.6 233.0,605.7" fill="none" stroke="#dc2626" stroke-width="8" stroke-linecap="round" stroke-linejoin="round" opacity="0.9"/>
<polyline points="485.5,971.5 480.1,970.2 474.8,968.8 469.4,967.3 464.1,965.8" fill="none" stroke="#dc2626" stroke-width="8" stroke-linecap="round" stroke-linejoin="round" opacity="0.9"/>
<polyline points="256.0,521.6 257.0,519.4 257.9,517.2 258.9,515.0 259.9,512.8" fill="none" stroke="#dc2626" stroke-width="8" stroke-linecap="round" stroke-linejoin="round" opacity="0.9"/>
<circle cx="560.7" cy="320.0" r="5.8" fill="#8a6f3d" stroke="#0f172a" stroke-width="1.2"/>
<circle cx="566.1" cy="320.1" r="5.8" fill="#6d597a" stroke="#0f172a" stroke-width="1.2"/>
<circle cx="568.5" cy="320.1" r="5.8" fill="#e76f51" stroke="#0f172a" stroke-width="1.2"/>
<circle cx="569.9" cy="320.1" r="5.8" fill="#8a6f3d" stroke="#0f172a" stroke-width="1.2"/>
<circle cx="577.0" cy="320.4" r="5.8" fill="#7c6f64" stroke="#0f172a" stroke-width="1.2"/>
<circle cx="579.0" cy="320.5" r="5.8" fill="#7c6f64" stroke="#0f172a" stroke-width="1.2"/>
<circle cx="582.4" cy="320.8" r="5.8" fill="#7c6f64" stroke="#0f172a" stroke-width="1.2"/>
<circle cx="588.0" cy="321.2" r="5.8" fill="#8a6f3d" stroke="#0f172a" stroke-width="1.2"/>
<circle cx="591.3" cy="321.5" r="5.8" fill="#6d597a" stroke="#0f172a" stroke-width="1.2"/>
<circle cx="591.4" cy="321.5" r="5.8" fill="#8a6f3d" stroke="#0f172a" stroke-width="1.2"/>
<circle cx="598.3" cy="322.2" r="5.8" fill="#7c6f64" stroke="#0f172a" stroke-width="1.2"/>
<circle cx="609.9" cy="323.8" r="5.8" fill="#7c6f64" stroke="#0f172a" stroke-width="1.2"/>
<circle cx="614.5" cy="324.5" r="5.8" fill="#8a6f3d" stroke="#0f172a" stroke-width="1.2"/>
<circle cx="642.2" cy="330.4" r="5.8" fill="#7c6f64" stroke="#0f172a" stroke-width="1.2"/>
<circle cx="642.6" cy="330.5" r="5.8" fill="#e76f51" stroke="#0f172a" stroke-width="1.2"/>
<circle cx="650.9" cy="332.8" r="5.8" fill="#e76f51" stroke="#0f172a" stroke-width="1.2"/>
<circle cx="651.6" cy="333.0" r="5.8" fill="#e76f51" stroke="#0f172a" stroke-width="1.2"/>
<circle cx="657.2" cy="334.6" r="5.8" fill="#6d597a" stroke="#0f172a" stroke-width="1.2"/>
<circle cx="679.2" cy="342.3" r="5.8" fill="#6d597a" stroke="#0f172a" stroke-width="1.2"/>
<circle cx="679.6" cy="342.5" r="5.8" fill="#6d597a" stroke="#0f172a" stroke-width="1.2"/>
<circle cx="686.6" cy="345.2" r="5.8" fill="#8a6f3d" stroke="#0f172a" stroke-width="1.2"/>
<circle cx="691.3" cy="347.3" r="5.8" fill="#8a6f3d" stroke="#0f172a" stroke-width="1.2"/>
<circle cx="712.6" cy="357.4" r="5.8" fill="#6d597a" stroke="#0f172a" stroke-width="1.2"/>
<circle cx="713.3" cy="357.8" r="5.8" fill="#8a6f3d" stroke="#0f172a" stroke-width="1.2"/>
<circle cx="737.8" cy="372.0" r="5.8" fill="#6d597a" stroke="#0f172a" stroke-width="1.2"/>
<circle cx="750.9" cy="380.9" r="5.8" fill="#6d597a" stroke="#0f172a" stroke-width="1.2"/>
<circle cx="752.5" cy="381.9" r="5.8" fill="#7c6f64" stroke="#0f172a" stroke-width="1.2"/>
<circle cx="752.5" cy="382.0" r="5.8" fill="#e76f51" stroke="#0f172a" stroke-width="1.2"/>
<circle cx="764.1" cy="390.7" r="5.8" fill="#8a6f3d" stroke="#0f172a" stroke-width="1.2"/>
<circle cx="772.9" cy="397.8" r="5.8" fill="#6d597a" stroke="#0f172a" stroke-width="1.2"/>
<circle cx="795.6" cy="418.9" r="5.8" fill="#7c6f64" stroke="#0f172a" stroke-width="1.2"/>
<circle cx="819.5" cy="446.1" r="5.8" fill="#7c6f64" stroke="#0f172a" stroke-width="1.2"/>
<circle cx="830.6" cy="461.2" r="5.8" fill="#7c6f64" stroke="#0f172a" stroke-width="1.2"/>
<circle cx="837.9" cy="472.0" r="5.8" fill="#8a6f3d" stroke="#0f172a" stroke-width="1.2"/>
<circle cx="849.6" cy="491.9" r="5.8" fill="#7c6f64" stroke="#0f172a" stroke-width="1.2"/>
<circle cx="854.4" cy="500.8" r="5.8" fill="#e76f51" stroke="#0f172a" stroke-width="1.2"/>
<circle cx="861.6" cy="516.0" r="5.8" fill="#7c6f64" stroke="#0f172a" stroke-width="1.2"/>
<circle cx="871.8" cy="541.9" r="5.8" fill="#6d597a" stroke="#0f172a" stroke-width="1.2"/>
<circle cx="877.5" cy="560.2" r="5.8" fill="#8a6f3d" stroke="#0f172a" stroke-width="1.2"/>
<circle cx="884.6" cy="590.4" r="5.8" fill="#8a6f3d" stroke="#0f172a" stroke-width="1.2"/>
<circle cx="889.0" cy="624.1" r="5.8" fill="#8a6f3d" stroke="#0f172a" stroke-width="1.2"/>
<circle cx="889.4" cy="630.4" r="5.8" fill="#7c6f64" stroke="#0f172a" stroke-width="1.2"/>
<circle cx="890.0" cy="647.6" r="5.8" fill="#8a6f3d" stroke="#0f172a" stroke-width="1.2"/>
<circle cx="890.0" cy="649.9" r="5.8" fill="#6d597a" stroke="#0f172a" stroke-width="1.2"/>
<circle cx="889.8" cy="660.1" r="5.8" fill="#7c6f64" stroke="#0f172a" stroke-width="1.2"/>
<circle cx="889.4" cy="670.1" r="5.8" fill="#e76f51" stroke="#0f172a" stroke-width="1.2"/>
<circle cx="889.1" cy="673.9" r="5.8" fill="#7c6f64" stroke="#0f172a" stroke-width="1.2"/>
<circle cx="889.0" cy="675.6" r="5.8" fill="#6d597a" stroke="#0f172a" stroke-width="1.2"/>
<circle cx="888.0" cy="686.2" r="5.8" fill="#8a6f3d" stroke="#0f172a" stroke-width="1.2"/>
<circle cx="887.7" cy="688.7" r="5.8" fill="#8a6f3d" stroke="#0f172a" stroke-width="1.2"/>
<circle cx="887.5" cy="690.2" r="5.8" fill="#e76f51" stroke="#0f172a" stroke-width="1.2"/>
<circle cx="885.2" cy="706.1" r="5.8" fill="#e76f51" stroke="#0f172a" stroke-width="1.2"/>
<circle cx="884.8" cy="708.3" r="5.8" fill="#e76f51" stroke="#0f172a" stroke-width="1.2"/>
<circle cx="880.0" cy="730.4" r="5.8" fill="#6d597a" stroke="#0f172a" stroke-width="1.2"/>
<circle cx="878.9" cy="734.8" r="5.8" fill="#8a6f3d" stroke="#0f172a" stroke-width="1.2"/>
<circle cx="877.6" cy="739.5" r="5.8" fill="#8a6f3d" stroke="#0f172a" stroke-width="1.2"/>
<circle cx="869.1" cy="765.5" r="5.8" fill="#8a6f3d" stroke="#0f172a" stroke-width="1.2"/>
<circle cx="866.1" cy="773.4" r="5.8" fill="#e76f51" stroke="#0f172a" stroke-width="1.2"/>
<circle cx="861.0" cy="785.4" r="5.8" fill="#e76f51" stroke="#0f172a" stroke-width="1.2"/>
<circle cx="852.9" cy="801.9" r="5.8" fill="#6d597a" stroke="#0f172a" stroke-width="1.2"/>
<circle cx="849.5" cy="808.5" r="5.8" fill="#6d597a" stroke="#0f172a" stroke-width="1.2"/>
<circle cx="849.4" cy="808.5" r="5.8" fill="#8a6f3d" stroke="#0f172a" stroke-width="1.2"/>
<circle cx="836.2" cy="830.6" r="5.8" fill="#e76f51" stroke="#0f172a" stroke-width="1.2"/>
<circle cx="831.6" cy="837.5" r="5.8" fill="#7c6f64" stroke="#0f172a" stroke-width="1.2"/>
<circle cx="827.9" cy="842.7" r="5.8" fill="#7c6f64" stroke="#0f172a" stroke-width="1.2"/>
<circle cx="823.7" cy="848.4" r="5.8" fill="#e76f51" stroke="#0f172a" stroke-width="1.2"/>
<circle cx="822.3" cy="850.3" r="5.8" fill="#e76f51" stroke="#0f172a" stroke-width="1.2"/>
<circle cx="818.6" cy="855.0" r="5.8" fill="#8a6f3d" stroke="#0f172a" stroke-width="1.2"/>
<circle cx="817.0" cy="857.0" r="5.8" fill="#8a6f3d" stroke="#0f172a" stroke-width="1.2"/>
<circle cx="811.9" cy="863.2" r="5.8" fill="#6d597a" stroke="#0f172a" stroke-width="1.2"/>
<circle cx="811.3" cy="863.9" r="5.8" fill="#6d597a" stroke="#0f172a" stroke-width="1.2"/>
<circle cx="800.9" cy="875.6" r="5.8" fill="#e76f51" stroke="#0f172a" stroke-width="1.2"/>
<circle cx="794.9" cy="881.8" r="5.8" fill="#7c6f64" stroke="#0f172a" stroke-width="1.2"/>
<circle cx="791.5" cy="885.2" r="5.8" fill="#e76f51" stroke="#0f172a" stroke-width="1.2"/>
<circle cx="785.5" cy="890.9" r="5.8" fill="#e76f51" stroke="#0f172a" stroke-width="1.2"/>
<circle cx="783.6" cy="892.7" r="5.8" fill="#8a6f3d" stroke="#0f172a" stroke-width="1.2"/>
<circle cx="781.4" cy="894.7" r="5.8" fill="#8a6f3d" stroke="#0f172a" stroke-width="1.2"/>
<circle cx="770.2" cy="904.4" r="5.8" fill="#8a6f3d" stroke="#0f172a" stroke-width="1.2"/>
<circle cx="763.4" cy="909.9" r="5.8" fill="#e76f51" stroke="#0f172a" stroke-width="1.2"/>
<circle cx="762.9" cy="910.3" r="5.8" fill="#8a6f3d" stroke="#0f172a" stroke-width="1.2"/>
<circle cx="759.3" cy="913.0" r="5.8" fill="#e76f51" stroke="#0f172a" stroke-width="1.2"/>
<circle cx="735.0" cy="929.8" r="5.8" fill="#8a6f3d" stroke="#0f172a" stroke-width="1.2"/>
<circle cx="719.6" cy="938.8" r="5.8" fill="#e76f51" stroke="#0f172a" stroke-width="1.2"/>
<circle cx="709.6" cy="944.1" r="5.8" fill="#8a6f3d" stroke="#0f172a" stroke-width="1.2"/>
<circle cx="709.3" cy="944.3" r="5.8" fill="#e76f51" stroke="#0f172a" stroke-width="1.2"/>
<circle cx="701.6" cy="948.1" r="5.8" fill="#6d597a" stroke="#0f172a" stroke-width="1.2"/>
<circle cx="698.9" cy="949.3" r="5.8" fill="#6d597a" stroke="#0f172a" stroke-width="1.2"/>
<circle cx="691.4" cy="952.7" r="5.8" fill="#8a6f3d" stroke="#0f172a" stroke-width="1.2"/>
<circle cx="689.0" cy="953.7" r="5.8" fill="#8a6f3d" stroke="#0f172a" stroke-width="1.2"/>
<circle cx="670.3" cy="961.0" r="5.8" fill="#7c6f64" stroke="#0f172a" stroke-width="1.2"/>
<circle cx="659.1" cy="964.8" r="5.8" fill="#6d597a" stroke="#0f172a" stroke-width="1.2"/>
<circle cx="656.0" cy="965.7" r="5.8" fill="#6d597a" stroke="#0f172a" stroke-width="1.2"/>
<circle cx="635.6" cy="971.2" r="5.8" fill="#7c6f64" stroke="#0f172a" stroke-width="1.2"/>
<circle cx="598.0" cy="977.8" r="5.8" fill="#8a6f3d" stroke="#0f172a" stroke-width="1.2"/>
<circle cx="592.5" cy="978.4" r="5.8" fill="#e76f51" stroke="#0f172a" stroke-width="1.2"/>
<circle cx="585.3" cy="979.0" r="5.8" fill="#e76f51" stroke="#0f172a" stroke-width="1.2"/>
<circle cx="578.3" cy="979.5" r="5.8" fill="#6d597a" stroke="#0f172a" stroke-width="1.2"/>
<circle cx="574.1" cy="979.7" r="5.8" fill="#6d597a" stroke="#0f172a" stroke-width="1.2"/>
<circle cx="570.2" cy="979.8" r="5.8" fill="#7c6f64" stroke="#0f172a" stroke-width="1.2"/>
<circle cx="551.7" cy="979.9" r="5.8" fill="#8a6f3d" stroke="#0f172a" stroke-width="1.2"/>
<circle cx="546.4" cy="979.7" r="5.8" fill="#e76f51" stroke="#0f172a" stroke-width="1.2"/>
<circle cx="541.8" cy="979.5" r="5.8" fill="#7c6f64" stroke="#0f172a" stroke-width="1.2"/>
<circle cx="540.6" cy="979.4" r="5.8" fill="#8a6f3d" stroke="#0f172a" stroke-width="1.2"/>
<circle cx="524.8" cy="978.1" r="5.8" fill="#8a6f3d" stroke="#0f172a" stroke-width="1.2"/>
<circle cx="504.5" cy="975.3" r="5.8" fill="#7c6f64" stroke="#0f172a" stroke-width="1.2"/>
<circle cx="503.8" cy="975.2" r="5.8" fill="#6d597a" stroke="#0f172a" stroke-width="1.2"/>
<circle cx="503.7" cy="975.2" r="5.8" fill="#8a6f3d" stroke="#0f172a" stroke-width="1.2"/>
<circle cx="502.5" cy="974.9" r="5.8" fill="#e76f51" stroke="#0f172a" stroke-width="1.2"/>
<circle cx="501.7" cy="974.8" r="5.8" fill="#7c6f64" stroke="#0f172a" stroke-width="1.2"/>
<circle cx="488.6" cy="972.2" r="5.8" fill="#e76f51" stroke="#0f172a" stroke-width="1.2"/>
<circle cx="485.5" cy="971.5" r="5.8" fill="#7c6f64" stroke="#0f172a" stroke-width="1.2"/>
<circle cx="481.6" cy="970.6" r="5.8" fill="#e76f51" stroke="#0f172a" stroke-width="1.2"/>
<circle cx="464.1" cy="965.8" r="5.8" fill="#e76f51" stroke="#0f172a" stroke-width="1.2"/>
<circle cx="460.3" cy="964.6" r="5.8" fill="#6d597a" stroke="#0f172a" stroke-width="1.2"/>
<circle cx="453.9" cy="962.5" r="5.8" fill="#e76f51" stroke="#0f172a" stroke-width="1.2"/>
<circle cx="453.5" cy="962.3" r="5.8" fill="#6d597a" stroke="#0f172a" stroke-width="1.2"/>
<circle cx="443.5" cy="958.7" r="5.8" fill="#e76f51" stroke="#0f172a" stroke-width="1.2"/>
<circle cx="441.5" cy="958.0" r="5.8" fill="#7c6f64" stroke="#0f172a" stroke-width="1.2"/>
<circle cx="434.3" cy="955.1" r="5.8" fill="#8a6f3d" stroke="#0f172a" stroke-width="1.2"/>
<circle cx="429.3" cy="953.0" r="5.8" fill="#8a6f3d" stroke="#0f172a" stroke-width="1.2"/>
<circle cx="425.7" cy="951.5" r="5.8" fill="#7c6f64" stroke="#0f172a" stroke-width="1.2"/>
<circle cx="421.9" cy="949.7" r="5.8" fill="#6d597a" stroke="#0f172a" stroke-width="1.2"/>
<circle cx="410.5" cy="944.2" r="5.8" fill="#6d597a" stroke="#0f172a" stroke-width="1.2"/>
<circle cx="403.3" cy="940.4" r="5.8" fill="#7c6f64" stroke="#0f172a" stroke-width="1.2"/>
<circle cx="385.3" cy="930.0" r="5.8" fill="#6d597a" stroke="#0f172a" stroke-width="1.2"/>
<circle cx="359.6" cy="912.2" r="5.8" fill="#8a6f3d" stroke="#0f172a" stroke-width="1.2"/>
<circle cx="351.2" cy="905.5" r="5.8" fill="#6d597a" stroke="#0f172a" stroke-width="1.2"/>
<circle cx="348.2" cy="903.0" r="5.8" fill="#6d597a" stroke="#0f172a" stroke-width="1.2"/>
<circle cx="344.4" cy="899.9" r="5.8" fill="#e76f51" stroke="#0f172a" stroke-width="1.2"/>
<circle cx="312.6" cy="868.4" r="5.8" fill="#6d597a" stroke="#0f172a" stroke-width="1.2"/>
<circle cx="307.2" cy="862.1" r="5.8" fill="#7c6f64" stroke="#0f172a" stroke-width="1.2"/>
<circle cx="287.2" cy="835.7" r="5.8" fill="#7c6f64" stroke="#0f172a" stroke-width="1.2"/>
<circle cx="286.9" cy="835.2" r="5.8" fill="#8a6f3d" stroke="#0f172a" stroke-width="1.2"/>
<circle cx="273.4" cy="813.6" r="5.8" fill="#6d597a" stroke="#0f172a" stroke-width="1.2"/>
<circle cx="268.8" cy="805.3" r="5.8" fill="#7c6f64" stroke="#0f172a" stroke-width="1.2"/>
<circle cx="260.8" cy="789.1" r="5.8" fill="#6d597a" stroke="#0f172a" stroke-width="1.2"/>
<circle cx="260.2" cy="787.8" r="5.8" fill="#e76f51" stroke="#0f172a" stroke-width="1.2"/>
<circle cx="259.3" cy="786.0" r="5.8" fill="#e76f51" stroke="#0f172a" stroke-width="1.2"/>
<circle cx="259.0" cy="785.3" r="5.8" fill="#7c6f64" stroke="#0f172a" stroke-width="1.2"/>
<circle cx="255.3" cy="776.7" r="5.8" fill="#7c6f64" stroke="#0f172a" stroke-width="1.2"/>
<circle cx="247.4" cy="755.8" r="5.8" fill="#7c6f64" stroke="#0f172a" stroke-width="1.2"/>
<circle cx="246.9" cy="754.3" r="5.8" fill="#e76f51" stroke="#0f172a" stroke-width="1.2"/>
<circle cx="240.7" cy="733.3" r="5.8" fill="#8a6f3d" stroke="#0f172a" stroke-width="1.2"/>
<circle cx="232.1" cy="687.1" r="5.8" fill="#8a6f3d" stroke="#0f172a" stroke-width="1.2"/>
<circle cx="231.6" cy="682.0" r="5.8" fill="#6d597a" stroke="#0f172a" stroke-width="1.2"/>
<circle cx="230.9" cy="674.9" r="5.8" fill="#7c6f64" stroke="#0f172a" stroke-width="1.2"/>
<circle cx="230.6" cy="670.2" r="5.8" fill="#7c6f64" stroke="#0f172a" stroke-width="1.2"/>
<circle cx="230.0" cy="647.4" r="5.8" fill="#6d597a" stroke="#0f172a" stroke-width="1.2"/>
<circle cx="230.0" cy="644.7" r="5.8" fill="#7c6f64" stroke="#0f172a" stroke-width="1.2"/>
<circle cx="230.5" cy="631.4" r="5.8" fill="#8a6f3d" stroke="#0f172a" stroke-width="1.2"/>
<circle cx="231.6" cy="617.2" r="5.8" fill="#8a6f3d" stroke="#0f172a" stroke-width="1.2"/>
<circle cx="233.0" cy="605.7" r="5.8" fill="#e76f51" stroke="#0f172a" stroke-width="1.2"/>
<circle cx="235.2" cy="591.6" r="5.8" fill="#e76f51" stroke="#0f172a" stroke-width="1.2"/>
<circle cx="241.7" cy="562.8" r="5.8" fill="#e76f51" stroke="#0f172a" stroke-width="1.2"/>
<circle cx="242.4" cy="560.4" r="5.8" fill="#e76f51" stroke="#0f172a" stroke-width="1.2"/>
<circle cx="244.5" cy="553.3" r="5.8" fill="#e76f51" stroke="#0f172a" stroke-width="1.2"/>
<circle cx="245.0" cy="551.7" r="5.8" fill="#6d597a" stroke="#0f172a" stroke-width="1.2"/>
<circle cx="246.1" cy="548.1" r="5.8" fill="#7c6f64" stroke="#0f172a" stroke-width="1.2"/>
<circle cx="249.8" cy="537.4" r="5.8" fill="#7c6f64" stroke="#0f172a" stroke-width="1.2"/>
<circle cx="256.0" cy="521.6" r="5.8" fill="#6d597a" stroke="#0f172a" stroke-width="1.2"/>
<circle cx="259.9" cy="512.8" r="5.8" fill="#e76f51" stroke="#0f172a" stroke-width="1.2"/>
<circle cx="262.5" cy="507.3" r="5.8" fill="#7c6f64" stroke="#0f172a" stroke-width="1.2"/>
<circle cx="266.7" cy="498.7" r="5.8" fill="#7c6f64" stroke="#0f172a" stroke-width="1.2"/>
<circle cx="268.8" cy="494.7" r="5.8" fill="#7c6f64" stroke="#0f172a" stroke-width="1.2"/>
<circle cx="269.0" cy="494.4" r="5.8" fill="#6d597a" stroke="#0f172a" stroke-width="1.2"/>
<circle cx="269.6" cy="493.2" r="5.8" fill="#7c6f64" stroke="#0f172a" stroke-width="1.2"/>
<circle cx="273.9" cy="485.6" r="5.8" fill="#7c6f64" stroke="#0f172a" stroke-width="1.2"/>
<circle cx="274.0" cy="485.4" r="5.8" fill="#6d597a" stroke="#0f172a" stroke-width="1.2"/>
<circle cx="277.9" cy="478.8" r="5.8" fill="#6d597a" stroke="#0f172a" stroke-width="1.2"/>
<circle cx="278.5" cy="477.7" r="5.8" fill="#8a6f3d" stroke="#0f172a" stroke-width="1.2"/>
<circle cx="285.0" cy="467.5" r="5.8" fill="#e76f51" stroke="#0f172a" stroke-width="1.2"/>
<circle cx="286.6" cy="465.2" r="5.8" fill="#6d597a" stroke="#0f172a" stroke-width="1.2"/>
<circle cx="306.7" cy="438.5" r="5.8" fill="#8a6f3d" stroke="#0f172a" stroke-width="1.2"/>
<circle cx="308.0" cy="436.9" r="5.8" fill="#7c6f64" stroke="#0f172a" stroke-width="1.2"/>
<circle cx="314.1" cy="430.0" r="5.8" fill="#6d597a" stroke="#0f172a" stroke-width="1.2"/>
<circle cx="322.4" cy="421.0" r="5.8" fill="#6d597a" stroke="#0f172a" stroke-width="1.2"/>
<circle cx="334.8" cy="408.8" r="5.8" fill="#8a6f3d" stroke="#0f172a" stroke-width="1.2"/>
<circle cx="341.9" cy="402.3" r="5.8" fill="#7c6f64" stroke="#0f172a" stroke-width="1.2"/>
<circle cx="347.5" cy="397.5" r="5.8" fill="#e76f51" stroke="#0f172a" stroke-width="1.2"/>
<circle cx="349.6" cy="395.8" r="5.8" fill="#8a6f3d" stroke="#0f172a" stroke-width="1.2"/>
<circle cx="351.4" cy="394.3" r="5.8" fill="#e76f51" stroke="#0f172a" stroke-width="1.2"/>
<circle cx="372.6" cy="378.4" r="5.8" fill="#6d597a" stroke="#0f172a" stroke-width="1.2"/>
<circle cx="373.6" cy="377.7" r="5.8" fill="#6d597a" stroke="#0f172a" stroke-width="1.2"/>
<circle cx="408.0" cy="357.1" r="5.8" fill="#e76f51" stroke="#0f172a" stroke-width="1.2"/>
<circle cx="428.2" cy="347.5" r="5.8" fill="#8a6f3d" stroke="#0f172a" stroke-width="1.2"/>
<circle cx="431.8" cy="345.9" r="5.8" fill="#e76f51" stroke="#0f172a" stroke-width="1.2"/>
<circle cx="438.2" cy="343.3" r="5.8" fill="#8a6f3d" stroke="#0f172a" stroke-width="1.2"/>
<circle cx="439.1" cy="342.9" r="5.8" fill="#6d597a" stroke="#0f172a" stroke-width="1.2"/>
<circle cx="449.5" cy="339.1" r="5.8" fill="#7c6f64" stroke="#0f172a" stroke-width="1.2"/>
<circle cx="456.4" cy="336.7" r="5.8" fill="#8a6f3d" stroke="#0f172a" stroke-width="1.2"/>
<circle cx="456.7" cy="336.6" r="5.8" fill="#7c6f64" stroke="#0f172a" stroke-width="1.2"/>
<circle cx="468.9" cy="332.8" r="5.8" fill="#7c6f64" stroke="#0f172a" stroke-width="1.2"/>
<circle cx="470.3" cy="332.4" r="5.8" fill="#6d597a" stroke="#0f172a" stroke-width="1.2"/>
<circle cx="480.1" cy="329.8" r="5.8" fill="#7c6f64" stroke="#0f172a" stroke-width="1.2"/>
<circle cx="488.9" cy="327.8" r="5.8" fill="#e76f51" stroke="#0f172a" stroke-width="1.2"/>
<circle cx="494.8" cy="326.5" r="5.8" fill="#6d597a" stroke="#0f172a" stroke-width="1.2"/>
<circle cx="499.0" cy="325.7" r="5.8" fill="#e76f51" stroke="#0f172a" stroke-width="1.2"/>
<circle cx="510.7" cy="323.7" r="5.8" fill="#e76f51" stroke="#0f172a" stroke-width="1.2"/>
<circle cx="551.3" cy="320.1" r="5.8" fill="#6d597a" stroke="#0f172a" stroke-width="1.2"/>
<circle cx="557.9" cy="320.0" r="5.8" fill="#e76f51" stroke="#0f172a" stroke-width="1.2"/>
<rect x="1040.0" y="96.0" width="300" height="168" rx="18" fill="#fffdf7" stroke="#d6d3d1" stroke-width="1.5"/>
<text x="1060.0" y="130.0" font-size="22" font-family="Segoe UI" font-weight="700" fill="#1f2937">图例</text>
<circle cx="1066.0" cy="162.0" r="6" fill="#64748b" stroke="#0f172a" stroke-width="1.3"/>
<text x="1088.0" y="168.0" font-size="17" font-family="Segoe UI" fill="#334155">原有节点的虚拟节点</text>
<circle cx="1066.0" cy="198.0" r="6" fill="#e76f51" stroke="#0f172a" stroke-width="1.3"/>
<text x="1088.0" y="204.0" font-size="17" font-family="Segoe UI" fill="#334155">新增节点的虚拟节点</text>
<line x1="1056.0" y1="234.0" x2="1078.0" y2="234.0" stroke="#dc2626" stroke-width="8" stroke-linecap="round"/>
<text x="1088.0" y="240.0" font-size="17" font-family="Segoe UI" fill="#334155">迁移区间</text>
<rect x="1040.0" y="360.0" width="300" height="160" rx="18" fill="#f8fafc" stroke="#d6d3d1" stroke-width="1.5"/>
<text x="1060.0" y="394.0" font-size="22" font-family="Segoe UI" font-weight="700" fill="#1f2937">环信息</text>
<text x="1060.0" y="430.0" font-size="18" font-family="Segoe UI" fill="#334155">真实节点数：4</text>
<text x="1060.0" y="462.0" font-size="18" font-family="Segoe UI" fill="#334155">每节点虚拟节点：50</text>
<text x="1060.0" y="494.0" font-size="18" font-family="Segoe UI" fill="#334155">环上虚拟节点总数：200</text>
</svg>
