<?xml version="1.0" encoding="UTF-8"?>
<svg xmlns="http://www.w3.org/2000/svg" width="1440" height="1200" viewBox="0 0 1440 1200">
<rect x="0" y="0" width="1440" height="1200" fill="#f7f4ea"/>
<rect x="40" y="40" width="1360" height="1120" rx="30" fill="#fffdf8" stroke="#e7e5e4" stroke-width="2"/>
<text x="70" y="86" font-size="34" font-family="Segoe UI" font-weight="700" fill="#111827">一致性哈希环（虚拟节点版，扩容后）</text>
<text x="70" y="122" font-size="19" font-family="Segoe UI" fill="#475569">每个真实节点拆成多个虚拟节点并均匀散列到环上，玩家顺时针找到第一个虚拟节点。</text>
<text x="70" y="152" font-size="19" font-family="Segoe UI" fill="#475569">真实节点数=5，replicas=20，环上虚拟节点总数=100</text>
<circle cx="560.0" cy="650.0" r="330.0" fill="none" stroke="#334155" stroke-width="4"/>
<polyline points="286.6,465.2 289.1,461.6 291.6,458.1 294.1,454.6 296.7,451.1" fill="none" stroke="#dc2626" stroke-width="8" stroke-linecap="round" stroke-linejoin="round" opacity="0.9"/>
<polyline points="800.9,875.6 797.6,879.0 794.3,882.4 790.9,885.8 787.5,889.1" fill="none" stroke="#dc2626" stroke-width="8" stroke-linecap="round" stroke-linejoin="round" opacity="0.9"/>
<polyline points="235.2,591.6 236.4,585.1 237.8,578.6 239.3,572.1 241.0,565.6" fill="none" stroke="#dc2626" stroke-width="8" stroke-linecap="round" stroke-linejoin="round" opacity="0.9"/>
<polyline points="260.2,787.8 256.7,779.9 253.4,772.0 250.3,763.9 247.4,755.8" fill="none" stroke="#dc2626" stroke-width="8" stroke-linecap="round" stroke-linejoin="round" opacity="0.9"/>
<polyline points="878.9,734.8 877.5,740.1 875.9,745.4 874.3,750.7 872.5,755.9" fill="none" stroke="#dc2626" stroke-width="8" stroke-linecap="round" stroke-linejoin="round" opacity="0.9"/>
<polyline points="811.3,863.9 810.1,865.3 808.8,866.7 807.6,868.1 806.4,869.5" fill="none" stroke="#dc2626" stroke-width="8" stroke-linecap="round" stroke-linejoin="round" opacity="0.9"/>
<polyline points="819.5,446.1 825.0,453.4 830.3,460.7 835.5,468.3 840.4,475.9 845.0,483.7 849.5,491.6 853.8,499.7 857.8,507.8 861.6,516.1 865.2,524.5 868.5,532.9 871.6,541.5 874.5,550.1 877.1,558.8 879.5,567.6 881.7,576.4 883.6,585.3 885.3,594.3 886.7,603.2 887.8,612.3 888.8,621.3 889.4,630.4" fill="none" stroke="#dc2626" stroke-width="8" stroke-linecap="round" stroke-linejoin="round" opacity="0.9"/>
<polyline points="878.9,734.8 878.4,736.8 877.8,738.8 877.3,740.8 876.7,742.8" fill="none" stroke="#dc2626" stroke-width="8" stroke-linecap="round" stroke-linejoin="round" opacity="0.9"/>
<polyline points="691.3,347.3 699.0,350.7 706.6,354.4 714.2,358.2 721.6,362.3" fill="none" stroke="#dc2626" stroke-width="8" stroke-linecap="round" stroke-linejoin="round" opacity="0.9"/>
<polyline points="750.9,380.9 751.6,381.3 752.3,381.8 752.9,382.3 753.6,382.7" fill="none" stroke="#dc2626" stroke-width="8" stroke-linecap="round" stroke-linejoin="round" opacity="0.9"/>
<polyline points="691.3,347.3 694.0,348.4 696.7,349.6 699.4,350.9 702.0,352.1" fill="none" stroke="#dc2626" stroke-width="8" stroke-linecap="round" stroke-linejoin="round" opacity="0.9"/>
<polyline points="750.9,380.9 758.0,386.0 764.9,391.3 771.7,396.9 778.3,402.6 784.8,408.4 791.1,414.5 797.3,420.7 803.3,427.0 809.1,433.6 814.7,440.2" fill="none" stroke="#dc2626" stroke-width="8" stroke-linecap="round" stroke-linejoin="round" opacity="0.9"/>
<polyline points="750.9,380.9 754.3,383.3 757.7,385.7 761.0,388.3 764.2,390.8" fill="none" stroke="#dc2626" stroke-width="8" stroke-linecap="round" stroke-linejoin="round" opacity="0.9"/>
<polyline points="322.4,421.0 326.8,416.5 331.2,412.2 335.7,407.9 340.3,403.7" fill="none" stroke="#dc2626" stroke-width="8" stroke-linecap="round" stroke-linejoin="round" opacity="0.9"/>
<polyline points="230.0,644.7 230.2,639.5 230.4,634.3 230.7,629.1 231.0,623.8" fill="none" stroke="#dc2626" stroke-width="8" stroke-linecap="round" stroke-linejoin="round" opacity="0.9"/>
<polyline points="819.5,446.1 825.2,453.6 830.7,461.2 835.9,469.0 841.0,476.9 845.8,485.0 850.4,493.2 854.7,501.5 858.8,509.9 862.7,518.5 866.3,527.2 869.7,535.9 872.8,544.8 875.6,553.7 878.3,562.7 880.6,571.8 882.7,581.0 884.5,590.2 886.1,599.4 887.4,608.7 888.5,618.1 889.2,627.4 889.7,636.8" fill="none" stroke="#dc2626" stroke-width="8" stroke-linecap="round" stroke-linejoin="round" opacity="0.9"/>
<polyline points="819.5,446.1 825.1,453.5 830.5,461.0 835.7,468.6 840.6,476.4 845.4,484.3 849.9,492.4 854.2,500.5 858.3,508.8 862.1,517.2 865.7,525.7 869.1,534.3 872.2,543.0 875.1,551.8 877.7,560.7 880.0,569.6 882.2,578.6 884.0,587.6 885.7,596.7 887.0,605.8 888.1,615.0" fill="none" stroke="#dc2626" stroke-width="8" stroke-linecap="round" stroke-linejoin="round" opacity="0.9"/>
<polyline points="260.2,787.8 259.0,785.4 257.9,782.9 256.9,780.4 255.8,778.0" fill="none" stroke="#dc2626" stroke-width="8" stroke-linecap="round" stroke-linejoin="round" opacity="0.9"/>
<polyline points="817.0,857.0 817.0,857.0 817.0,857.0 817.0,857.0 817.0,857.0" fill="none" stroke="#dc2626" stroke-width="8" stroke-linecap="round" stroke-linejoin="round" opacity="0.9"/>
<polyline points="819.5,446.1 823.7,451.7 827.9,457.3 831.9,463.0 835.8,468.7" fill="none" stroke="#dc2626" stroke-width="8" stroke-linecap="round" stroke-linejoin="round" opacity="0.9"/>
<circle cx="566.1" cy="320.1" r="5.8" fill="#6d597a" stroke="#0f172a" stroke-width="1.2"/>
<circle cx="569.9" cy="320.1" r="5.8" fill="#8a6f3d" stroke="#0f172a" stroke-width="1.2"/>
<circle cx="579.0" cy="320.5" r="5.8" fill="#7c6f64" stroke="#0f172a" stroke-width="1.2"/>
<circle cx="582.4" cy="320.8" r="5.8" fill="#7c6f64" stroke="#0f172a" stroke-width="1.2"/>
<circle cx="609.9" cy="323.8" r="5.8" fill="#7c6f64" stroke="#0f172a" stroke-width="1.2"/>
<circle cx="614.5" cy="324.5" r="5.8" fill="#8a6f3d" stroke="#0f172a" stroke-width="1.2"/>
<circle cx="691.3" cy="347.3" r="5.8" fill="#8a6f3d" stroke="#0f172a" stroke-width="1.2"/>
<circle cx="702.0" cy="352.1" r="5.8" fill="#e76f51" stroke="#0f172a" stroke-width="1.2"/>
<circle cx="721.6" cy="362.3" r="5.8" fill="#e76f51" stroke="#0f172a" stroke-width="1.2"/>
<circle cx="737.8" cy="372.0" r="5.8" fill="#6d597a" stroke="#0f172a" stroke-width="1.2"/>
<circle cx="750.9" cy="380.9" r="5.8" fill="#6d597a" stroke="#0f172a" stroke-width="1.2"/>
<circle cx="753.6" cy="382.7" r="5.8" fill="#e76f51" stroke="#0f172a" stroke-width="1.2"/>
<circle cx="764.2" cy="390.8" r="5.8" fill="#e76f51" stroke="#0f172a" stroke-width="1.2"/>
<circle cx="814.7" cy="440.2" r="5.8" fill="#e76f51" stroke="#0f172a" stroke-width="1.2"/>
<circle cx="819.5" cy="446.1" r="5.8" fill="#7c6f64" stroke="#0f172a" stroke-width="1.2"/>
<circle cx="835.8" cy="468.7" r="5.8" fill="#e76f51" stroke="#0f172a" stroke-width="1.2"/>
<circle cx="888.1" cy="615.0" r="5.8" fill="#e76f51" stroke="#0f172a" stroke-width="1.2"/>
<circle cx="889.4" cy="630.4" r="5.8" fill="#e76f51" stroke="#0f172a" stroke-width="1.2"/>
<circle cx="889.7" cy="636.8" r="5.8" fill="#e76f51" stroke="#0f172a" stroke-width="1.2"/>
<circle cx="890.0" cy="647.6" r="5.8" fill="#8a6f3d" stroke="#0f172a" stroke-width="1.2"/>
<circle cx="889.4" cy="670.1" r="5.8" fill="#64748b" stroke="#0f172a" stroke-width="1.2"/>
<circle cx="887.7" cy="688.7" r="5.8" fill="#8a6f3d" stroke="#0f172a" stroke-width="1.2"/>
<circle cx="878.9" cy="734.8" r="5.8" fill="#8a6f3d" stroke="#0f172a" stroke-width="1.2"/>
<circle cx="876.7" cy="742.8" r="5.8" fill="#e76f51" stroke="#0f172a" stroke-width="1.2"/>
<circle cx="872.5" cy="755.9" r="5.8" fill="#e76f51" stroke="#0f172a" stroke-width="1.2"/>
<circle cx="869.1" cy="765.5" r="5.8" fill="#8a6f3d" stroke="#0f172a" stroke-width="1.2"/>
<circle cx="866.1" cy="773.4" r="5.8" fill="#64748b" stroke="#0f172a" stroke-width="1.2"/>
<circle cx="861.0" cy="785.4" r="5.8" fill="#64748b" stroke="#0f172a" stroke-width="1.2"/>
<circle cx="849.4" cy="808.5" r="5.8" fill="#8a6f3d" stroke="#0f172a" stroke-width="1.2"/>
<circle cx="836.2" cy="830.6" r="5.8" fill="#64748b" stroke="#0f172a" stroke-width="1.2"/>
<circle cx="818.6" cy="855.0" r="5.8" fill="#8a6f3d" stroke="#0f172a" stroke-width="1.2"/>
<circle cx="817.0" cy="857.0" r="5.8" fill="#8a6f3d" stroke="#0f172a" stroke-width="1.2"/>
<circle cx="817.0" cy="857.0" r="5.8" fill="#e76f51" stroke="#0f172a" stroke-width="1.2"/>
<circle cx="811.3" cy="863.9" r="5.8" fill="#6d597a" stroke="#0f172a" stroke-width="1.2"/>
<circle cx="806.4" cy="869.5" r="5.8" fill="#e76f51" stroke="#0f172a" stroke-width="1.2"/>
<circle cx="800.9" cy="875.6" r="5.8" fill="#64748b" stroke="#0f172a" stroke-width="1.2"/>
<circle cx="787.5" cy="889.1" r="5.8" fill="#e76f51" stroke="#0f172a" stroke-width="1.2"/>
<circle cx="763.4" cy="909.9" r="5.8" fill="#64748b" stroke="#0f172a" stroke-width="1.2"/>
<circle cx="759.3" cy="913.0" r="5.8" fill="#64748b" stroke="#0f172a" stroke-width="1.2"/>
<circle cx="735.0" cy="929.8" r="5.8" fill="#8a6f3d" stroke="#0f172a" stroke-width="1.2"/>
<circle cx="719.6" cy="938.8" r="5.8" fill="#64748b" stroke="#0f172a" stroke-width="1.2"/>
<circle cx="709.6" cy="944.1" r="5.8" fill="#8a6f3d" stroke="#0f172a" stroke-width="1.2"/>
<circle cx="709.3" cy="944.3" r="5.8" fill="#64748b" stroke="#0f172a" stroke-width="1.2"/>
<circle cx="670.3" cy="961.0" r="5.8" fill="#7c6f64" stroke="#0f172a" stroke-width="1.2"/>
<circle cx="656.0" cy="965.7" r="5.8" fill="#6d597a" stroke="#0f172a" stroke-width="1.2"/>
<circle cx="592.5" cy="978.4" r="5.8" fill="#64748b" stroke="#0f172a" stroke-width="1.2"/>
<circle cx="585.3" cy="979.0" r="5.8" fill="#64748b" stroke="#0f172a" stroke-width="1.2"/>
<circle cx="578.3" cy="979.5" r="5.8" fill="#6d597a" stroke="#0f172a" stroke-width="1.2"/>
<circle cx="541.8" cy="979.5" r="5.8" fill="#7c6f64" stroke="#0f172a" stroke-width="1.2"/>
<circle cx="504.5" cy="975.3" r="5.8" fill="#7c6f64" stroke="#0f172a" stroke-width="1.2"/>
<circle cx="503.8" cy="975.2" r="5.8" fill="#6d597a" stroke="#0f172a" stroke-width="1.2"/>
<circle cx="501.7" cy="974.8" r="5.8" fill="#7c6f64" stroke="#0f172a" stroke-width="1.2"/>
<circle cx="488.6" cy="972.2" r="5.8" fill="#64748b" stroke="#0f172a" stroke-width="1.2"/>
<circle cx="453.9" cy="962.5" r="5.8" fill="#64748b" stroke="#0f172a" stroke-width="1.2"/>
<circle cx="453.5" cy="962.3" r="5.8" fill="#6d597a" stroke="#0f172a" stroke-width="1.2"/>
<circle cx="441.5" cy="958.0" r="5.8" fill="#7c6f64" stroke="#0f172a" stroke-width="1.2"/>
<circle cx="421.9" cy="949.7" r="5.8" fill="#6d597a" stroke="#0f172a" stroke-width="1.2"/>
<circle cx="410.5" cy="944.2" r="5.8" fill="#6d597a" stroke="#0f172a" stroke-width="1.2"/>
<circle cx="403.3" cy="940.4" r="5.8" fill="#7c6f64" stroke="#0f172a" stroke-width="1.2"/>
<circle cx="385.3" cy="930.0" r="5.8" fill="#6d597a" stroke="#0f172a" stroke-width="1.2"/>
<circle cx="348.2" cy="903.0" r="5.8" fill="#6d597a" stroke="#0f172a" stroke-width="1.2"/>
<circle cx="312.6" cy="868.4" r="5.8" fill="#6d597a" stroke="#0f172a" stroke-width="1.2"/>
<circle cx="287.2" cy="835.7" r="5.8" fill="#7c6f64" stroke="#0f172a" stroke-width="1.2"/>
<circle cx="286.9" cy="835.2" r="5.8" fill="#8a6f3d" stroke="#0f172a" stroke-width="1.2"/>
<circle cx="260.8" cy="789.1" r="5.8" fill="#6d597a" stroke="#0f172a" stroke-width="1.2"/>
<circle cx="260.2" cy="787.8" r="5.8" fill="#64748b" stroke="#0f172a" stroke-width="1.2"/>
<circle cx="255.8" cy="778.0" r="5.8" fill="#e76f51" stroke="#0f172a" stroke-width="1.2"/>
<circle cx="247.4" cy="755.8" r="5.8" fill="#e76f51" stroke="#0f172a" stroke-width="1.2"/>
<circle cx="240.7" cy="733.3" r="5.8" fill="#8a6f3d" stroke="#0f172a" stroke-width="1.2"/>
<circle cx="232.1" cy="687.1" r="5.8" fill="#8a6f3d" stroke="#0f172a" stroke-width="1.2"/>
<circle cx="231.6" cy="682.0" r="5.8" fill="#6d597a" stroke="#0f172a" stroke-width="1.2"/>
<circle cx="230.9" cy="674.9" r="5.8" fill="#7c6f64" stroke="#0f172a" stroke-width="1.2"/>
<circle cx="230.6" cy="670.2" r="5.8" fill="#7c6f64" stroke="#0f172a" stroke-width="1.2"/>
<circle cx="230.0" cy="644.7" r="5.8" fill="#7c6f64" stroke="#0f172a" stroke-width="1.2"/>
<circle cx="231.0" cy="623.8" r="5.8" fill="#e76f51" stroke="#0f172a" stroke-width="1.2"/>
<circle cx="231.6" cy="617.2" r="5.8" fill="#8a6f3d" stroke="#0f172a" stroke-width="1.2"/>
<circle cx="235.2" cy="591.6" r="5.8" fill="#64748b" stroke="#0f172a" stroke-width="1.2"/>
<circle cx="241.0" cy="565.6" r="5.8" fill="#e76f51" stroke="#0f172a" stroke-width="1.2"/>
<circle cx="244.5" cy="553.3" r="5.8" fill="#64748b" stroke="#0f172a" stroke-width="1.2"/>
<circle cx="256.0" cy="521.6" r="5.8" fill="#6d597a" stroke="#0f172a" stroke-width="1.2"/>
<circle cx="262.5" cy="507.3" r="5.8" fill="#7c6f64" stroke="#0f172a" stroke-width="1.2"/>
<circle cx="266.7" cy="498.7" r="5.8" fill="#7c6f64" stroke="#0f172a" stroke-width="1.2"/>
<circle cx="273.9" cy="485.6" r="5.8" fill="#7c6f64" stroke="#0f172a" stroke-width="1.2"/>
<circle cx="278.5" cy="477.7" r="5.8" fill="#8a6f3d" stroke="#0f172a" stroke-width="1.2"/>
<circle cx="286.6" cy="465.2" r="5.8" fill="#6d597a" stroke="#0f172a" stroke-width="1.2"/>
<circle cx="296.7" cy="451.1" r="5.8" fill="#e76f51" stroke="#0f172a" stroke-width="1.2"/>
<circle cx="306.7" cy="438.5" r="5.8" fill="#8a6f3d" stroke="#0f172a" stroke-width="1.2"/>
<circle cx="322.4" cy="421.0" r="5.8" fill="#6d597a" stroke="#0f172a" stroke-width="1.2"/>
<circle cx="340.3" cy="403.7" r="5.8" fill="#e76f51" stroke="#0f172a" stroke-width="1.2"/>
<circle cx="341.9" cy="402.3" r="5.8" fill="#7c6f64" stroke="#0f172a" stroke-width="1.2"/>
<circle cx="428.2" cy="347.5" r="5.8" fill="#8a6f3d" stroke="#0f172a" stroke-width="1.2"/>
<circle cx="431.8" cy="345.9" r="5.8" fill="#64748b" stroke="#0f172a" stroke-width="1.2"/>
<circle cx="438.2" cy="343.3" r="5.8" fill="#8a6f3d" stroke="#0f172a" stroke-width="1.2"/>
<circle cx="449.5" cy="339.1" r="5.8" fill="#7c6f64" stroke="#0f172a" stroke-width="1.2"/>
<circle cx="468.9" cy="332.8" r="5.8" fill="#7c6f64" stroke="#0f172a" stroke-width="1.2"/>
<circle cx="488.9" cy="327.8" r="5.8" fill="#64748b" stroke="#0f172a" stroke-width="1.2"/>
<circle cx="494.8" cy="326.5" r="5.8" fill="#6d597a" stroke="#0f172a" stroke-width="1.2"/>
<circle cx="499.0" cy="325.7" r="5.8" fill="#64748b" stroke="#0f172a" stroke-width="1.2"/>
<circle cx="551.3" cy="320.1" r="5.8" fill="#6d597a" stroke="#0f172a" stroke-width="1.2"/>
<circle cx="557.9" cy="320.0" r="5.8" fill="#64748b" stroke="#0f172a" stroke-width="1.2"/>
<rect x="1040.0" y="96.0" width="300" height="168" rx="18" fill="#fffdf7" stroke="#d6d3d1" stroke-width="1.5"/>
<text x="1060.0" y="130.0" font-size="22" font-family="Segoe UI" font-weight="700" fill="#1f2937">图例</text>
<circle cx="1066.0" cy="162.0" r="6" fill="#64748b" stroke="#0f172a" stroke-width="1.3"/>
<text x="1088.0" y="168.0" font-size="17" font-family="Segoe UI" fill="#334155">原有节点的虚拟节点</text>
<circle cx="1066.0" cy="198.0" r="6" fill="#e76f51" stroke="#0f172a" stroke-width="1.3"/>
<text x="1088.0" y="204.0" font-size="17" font-family="Segoe UI" fill="#334155">新增节点的虚拟节点</text>
<line x1="1056.0" y1="234.0" x2="1078.0" y2="234.0" stroke="#dc2626" stroke-width="8" stroke-linecap="round"/>
<text x="1088.0" y="240.0" font-size="17" font-family="Segoe UI" fill="#334155">迁移区间</text>
<rect x="1040.0" y="360.0" width="300" height="160" rx="18" fill="#f8fafc" stroke="#d6d3d1" stroke-width="1.5"/>
<text x="1060.0" y="394.0" font-size="22" font-family="Segoe UI" font-weight="700" fill="#1f2937">环信息</text>
<text x="1060.0" y="430.0" font-size="18" font-family="Segoe UI" fill="#334155">真实节点数：5</text>
<text x="1060.0" y="462.0" font-size="18" font-family="Segoe UI" fill="#334155">每节点虚拟节点：20</text>
<text x="1060.0" y="494.0" font-size="18" font-family="Segoe UI" fill="#334155">环上虚拟节点总数：100</text>
</svg>
